<svg width="16" height="16" viewBox="0 0 16 16" fill="none" xmlns="http://www.w3.org/2000/svg">
<g clip-path="url(#clip0)">
<path fill-rule="evenodd" clip-rule="evenodd" d="M2.51922 2.81428C2.30443 3.02907 2.30443 3.37731 2.51922 3.5921L6.92712 8L2.51922 12.4079C2.30443 12.6227 2.30443 12.9709 2.51922 13.1857C2.73401 13.4005 3.08225 13.4005 3.29704 13.1857L7.70494 8.77782L12.1123 13.1852C12.3271 13.4 12.6753 13.4 12.8901 13.1852C13.1049 12.9704 13.1049 12.6221 12.8901 12.4074L8.48276 8L12.8901 3.59264C13.1049 3.37785 13.1049 3.02961 12.8901 2.81482C12.6753 2.60003 12.3271 2.60003 12.1123 2.81482L7.70494 7.22218L3.29704 2.81428C3.08225 2.59949 2.73401 2.59949 2.51922 2.81428Z" fill="#666F7D"/>
</g>
<defs>
<clipPath id="clip0">
<rect width="16" height="16" fill="white"/>
</clipPath>
</defs>
</svg>
